<svg preserveAspectRatio="none" width="100%" height="100%" overflow="visible" style="display: block;" viewBox="0 0 20 19.9998" fill="none" xmlns="http://www.w3.org/2000/svg">
<g id="Vector">
<path fill-rule="evenodd" clip-rule="evenodd" d="M8.54875 19.5277L8.7988 19.1053C9.19955 18.4282 9.39993 18.0897 9.71913 17.9009C10.0383 17.712 10.4547 17.6987 11.2874 17.6721C12.0682 17.6471 12.593 17.579 13.0417 17.3931C13.9864 17.0018 14.7369 16.2513 15.1282 15.3066C15.4217 14.5981 15.4217 13.6999 15.4217 11.9035V11.1324C15.4217 8.60827 15.4217 7.34622 14.8536 6.4191C14.5357 5.90033 14.0995 5.46416 13.5807 5.14626C12.6536 4.57813 11.3916 4.57812 8.86747 4.57812H6.55422C4.03013 4.57812 2.76808 4.57813 1.84097 5.14626C1.3222 5.46416 0.886036 5.90033 0.568134 6.4191C0 7.34622 0 8.60827 0 11.1324V11.9035C0 13.6999 0 14.5981 0.293477 15.3066C0.684779 16.2513 1.43533 17.0018 2.38002 17.3931C2.82871 17.579 3.35348 17.6471 4.13427 17.6721C4.96698 17.6987 5.38334 17.712 5.70253 17.9009C6.02172 18.0897 6.2221 18.4282 6.62285 19.1053L6.87291 19.5277C7.24547 20.1572 8.17618 20.1572 8.54875 19.5277ZM11.0843 12.289C11.6167 12.289 12.0482 11.8574 12.0482 11.3251C12.0482 10.7928 11.6167 10.3613 11.0843 10.3613C10.552 10.3613 10.1205 10.7928 10.1205 11.3251C10.1205 11.8574 10.552 12.289 11.0843 12.289ZM8.6747 11.3251C8.6747 11.8574 8.24317 12.289 7.71084 12.289C7.17852 12.289 6.74699 11.8574 6.74699 11.3251C6.74699 10.7928 7.17852 10.3613 7.71084 10.3613C8.24317 10.3613 8.6747 10.7928 8.6747 11.3251ZM4.33735 12.289C4.86967 12.289 5.30121 11.8574 5.30121 11.3251C5.30121 10.7928 4.86967 10.3613 4.33735 10.3613C3.80503 10.3613 3.37349 10.7928 3.37349 11.3251C3.37349 11.8574 3.80503 12.289 4.33735 12.289Z" fill="var(--fill-0, black)"/>
<path d="M13.1696 1.61315e-07C14.3214 -7.54314e-06 15.2372 -1.36644e-05 15.9717 0.0698247C16.7249 0.141434 17.3617 0.291538 17.9289 0.639155C18.5125 0.996795 19.0032 1.48748 19.3608 2.0711C19.7085 2.63836 19.8586 3.27514 19.9302 4.02829C20 4.76279 20 5.67871 20 6.83039V7.61699C20 8.43666 20 9.08861 19.9639 9.61728C19.927 10.1581 19.85 10.6226 19.6698 11.0575C19.2296 12.1202 18.3853 12.9646 17.3225 13.4048C17.2959 13.4158 17.2692 13.4265 17.2423 13.4367C17.114 13.4858 17.0042 13.5278 16.9077 13.5591C16.9217 13.0903 16.9217 12.5563 16.9217 11.9537V11.0614C16.9217 9.85978 16.9217 8.85321 16.8439 8.03489C16.7625 7.17817 16.5853 6.37421 16.1325 5.63536C15.6909 4.91475 15.0851 4.30889 14.3645 3.8673C13.6256 3.41453 12.8217 3.23733 11.9649 3.15588C11.1466 3.07807 10.14 3.07809 8.93843 3.07812H6.48326C5.66717 3.0781 4.94105 3.07809 4.30276 3.10245C4.3325 2.9994 4.37324 2.88128 4.42106 2.74264C4.5024 2.50682 4.60519 2.28381 4.73554 2.0711C5.09318 1.48748 5.58386 0.996796 6.16748 0.639155C6.73473 0.291538 7.37152 0.141434 8.12466 0.0698247C8.85918 -1.36644e-05 9.77505 -7.54314e-06 10.9268 1.61315e-07H13.1696Z" fill="var(--fill-0, black)"/>
</g>
</svg>
