<svg preserveAspectRatio="none" width="100%" height="100%" overflow="visible" style="display: block;" viewBox="0 0 24 25" fill="none" xmlns="http://www.w3.org/2000/svg">
<g id="bx:bxl-facebook-circle">
<path id="Vector" d="M12 3C6.47745 3 2 7.50448 2 13.0604C2 18.081 5.65637 22.2424 10.4378 23V15.9691H7.89759V13.0604H10.4378V10.8438C10.4378 8.32046 11.931 6.92897 14.2142 6.92897C15.3083 6.92897 16.4544 7.12516 16.4544 7.12516V9.59926H15.1903C13.9502 9.59926 13.5622 10.376 13.5622 11.1718V13.0584H16.3334L15.8904 15.9671H13.5622V22.998C18.3436 22.2444 22 18.082 22 13.0604C22 7.50448 17.5226 3 12 3V3Z" fill="var(--fill-0, white)" fill-opacity="0.5"/>
</g>
</svg>
