<svg preserveAspectRatio="none" width="100%" height="100%" overflow="visible" style="display: block;" viewBox="0 0 25 25" fill="none" xmlns="http://www.w3.org/2000/svg">
<g id="ant-design:instagram-filled">
<path id="Vector" d="M11.9973 9.66525C10.1611 9.66525 8.66262 11.1638 8.66262 13C8.66262 14.8362 10.1611 16.3348 11.9973 16.3348C13.8335 16.3348 15.332 14.8362 15.332 13C15.332 11.1638 13.8335 9.66525 11.9973 9.66525ZM21.9989 13C21.9989 11.6191 22.0114 10.2506 21.9338 8.87221C21.8563 7.27113 21.4911 5.85017 20.3203 4.67938C19.147 3.50609 17.7286 3.14334 16.1275 3.06579C14.7466 2.98824 13.3782 3.00074 11.9998 3.00074C10.6189 3.00074 9.25051 2.98824 7.8721 3.06579C6.27105 3.14334 4.85012 3.50859 3.67935 4.67938C2.50608 5.85267 2.14334 7.27113 2.06579 8.87221C1.98824 10.2531 2.00074 11.6216 2.00074 13C2.00074 14.3784 1.98824 15.7494 2.06579 17.1278C2.14334 18.7289 2.50858 20.1498 3.67935 21.3206C4.85262 22.4939 6.27105 22.8567 7.8721 22.9342C9.25301 23.0118 10.6214 22.9993 11.9998 22.9993C13.3807 22.9993 14.7491 23.0118 16.1275 22.9342C17.7286 22.8567 19.1495 22.4914 20.3203 21.3206C21.4936 20.1473 21.8563 18.7289 21.9338 17.1278C22.0139 15.7494 21.9989 14.3809 21.9989 13V13ZM11.9973 18.131C9.15795 18.131 6.86644 15.8394 6.86644 13C6.86644 10.1606 9.15795 7.86903 11.9973 7.86903C14.8367 7.86903 17.1282 10.1606 17.1282 13C17.1282 15.8394 14.8367 18.131 11.9973 18.131ZM17.3383 8.8572C16.6754 8.8572 16.14 8.32184 16.14 7.65889C16.14 6.99594 16.6754 6.46058 17.3383 6.46058C18.0013 6.46058 18.5366 6.99594 18.5366 7.65889C18.5368 7.81631 18.5059 7.97222 18.4458 8.1177C18.3856 8.26317 18.2974 8.39535 18.1861 8.50666C18.0748 8.61798 17.9426 8.70624 17.7971 8.76639C17.6516 8.82654 17.4957 8.8574 17.3383 8.8572V8.8572Z" fill="var(--fill-0, white)" fill-opacity="0.5"/>
</g>
</svg>
