<svg preserveAspectRatio="none" width="100%" height="100%" overflow="visible" style="display: block;" viewBox="0 0 24 25" fill="none" xmlns="http://www.w3.org/2000/svg">
<g id="ant-design:linkedin-filled">
<path id="Vector" d="M21.2 3H2.8C2.3575 3 2 3.3575 2 3.8V22.2C2 22.6425 2.3575 23 2.8 23H21.2C21.6425 23 22 22.6425 22 22.2V3.8C22 3.3575 21.6425 3 21.2 3ZM7.9325 20.0425H4.965V10.4975H7.9325V20.0425ZM6.45 9.1925C6.10982 9.1925 5.77727 9.09162 5.49442 8.90263C5.21157 8.71363 4.99111 8.445 4.86093 8.13072C4.73074 7.81643 4.69668 7.47059 4.76305 7.13694C4.82942 6.8033 4.99323 6.49682 5.23378 6.25628C5.47432 6.01573 5.7808 5.85192 6.11444 5.78555C6.44809 5.71918 6.79393 5.75324 7.10822 5.88343C7.4225 6.01361 7.69113 6.23407 7.88013 6.51692C8.06912 6.79977 8.17 7.13232 8.17 7.4725C8.1675 8.4225 7.3975 9.1925 6.45 9.1925ZM19.0425 20.0425H16.0775V15.4C16.0775 14.2925 16.0575 12.87 14.535 12.87C12.9925 12.87 12.755 14.075 12.755 15.32V20.0425H9.7925V10.4975H12.6375V11.8025H12.6775C13.0725 11.0525 14.04 10.26 15.485 10.26C18.49 10.26 19.0425 12.2375 19.0425 14.8075V20.0425V20.0425Z" fill="var(--fill-0, white)" fill-opacity="0.5"/>
</g>
</svg>
