<svg preserveAspectRatio="none" width="100%" height="100%" overflow="visible" style="display: block;" viewBox="0 0 19 15" fill="none" xmlns="http://www.w3.org/2000/svg">
<path id="mail" d="M1.8 15C1.3 15 0.875 14.825 0.525 14.475C0.175 14.125 0 13.7 0 13.2V1.8C0 1.3 0.175 0.875 0.525 0.525C0.875 0.175 1.3 0 1.8 0H17.2C17.7 0 18.125 0.175 18.475 0.525C18.825 0.875 19 1.3 19 1.8V13.2C19 13.7 18.825 14.125 18.475 14.475C18.125 14.825 17.7 15 17.2 15H1.8ZM17.5 2.95L9.975 7.75C9.90833 7.8 9.83333 7.83733 9.75 7.862C9.66667 7.88733 9.58333 7.9 9.5 7.9C9.41667 7.9 9.33333 7.88733 9.25 7.862C9.16667 7.83733 9.09167 7.8 9.025 7.75L1.5 2.95V13.2C1.5 13.2833 1.52933 13.3543 1.588 13.413C1.646 13.471 1.71667 13.5 1.8 13.5H17.2C17.2833 13.5 17.3543 13.471 17.413 13.413C17.471 13.3543 17.5 13.2833 17.5 13.2V2.95ZM9.5 6.5L17.35 1.5H1.65L9.5 6.5ZM1.5 2.95V13.5V13.2V2.95Z" fill="var(--fill-0, white)"/>
</svg>
