<svg preserveAspectRatio="none" width="100%" height="100%" overflow="visible" style="display: block;" viewBox="0 0 18.6664 18.6031" fill="none" xmlns="http://www.w3.org/2000/svg">
<g id="whatapp">
<g id="Union">
<mask id="path-1-outside-1_0_382" maskUnits="userSpaceOnUse" x="-0.734538" y="-0.6" width="20" height="20" fill="black">
<rect fill="white" x="-0.734538" y="-0.6" width="20" height="20"/>
<path d="M9.76644 1.4C13.9086 1.4 17.2664 4.75786 17.2664 8.9C17.2664 13.0422 13.9086 16.4 9.76644 16.4C8.2941 16.3999 6.92206 15.9738 5.76351 15.2408L2.26546 16.3873L3.46956 12.9713C2.70979 11.7985 2.26644 10.4014 2.26644 8.9C2.26646 4.75796 5.62443 1.40016 9.76644 1.4Z"/>
</mask>
<path d="M9.76644 1.4V0H9.76638L9.76644 1.4ZM17.2664 8.9H18.6664V8.89999L17.2664 8.9ZM9.76644 16.4L9.76638 17.8H9.76644V16.4ZM5.76351 15.2408L6.51202 14.0577L5.95445 13.705L5.32748 13.9105L5.76351 15.2408ZM2.26546 16.3873L0.945087 15.9219L0 18.6031L2.70149 17.7177L2.26546 16.3873ZM3.46956 12.9713L4.78994 13.4367L5.01872 12.7877L4.64454 12.2101L3.46956 12.9713ZM2.26644 8.9L0.866438 8.89999V8.9H2.26644ZM9.76644 1.4V2.8C13.1354 2.8 15.8664 5.53105 15.8664 8.90001L17.2664 8.9L18.6664 8.89999C18.6664 3.98467 14.6818 0 9.76644 0V1.4ZM17.2664 8.9H15.8664C15.8664 12.269 13.1354 15 9.76644 15V16.4V17.8C14.6818 17.8 18.6664 13.8154 18.6664 8.9H17.2664ZM9.76644 16.4L9.76649 15C8.56828 15 7.4545 14.654 6.51202 14.0577L5.76351 15.2408L5.01499 16.4239C6.38963 17.2936 8.01991 17.7999 9.76638 17.8L9.76644 16.4ZM5.76351 15.2408L5.32748 13.9105L1.82943 15.0569L2.26546 16.3873L2.70149 17.7177L6.19954 16.5712L5.76351 15.2408ZM2.26546 16.3873L3.58584 16.8527L4.78994 13.4367L3.46956 12.9713L2.14919 12.5059L0.945087 15.9219L2.26546 16.3873ZM3.46956 12.9713L4.64454 12.2101C4.02628 11.2558 3.66644 10.1216 3.66644 8.9H2.26644H0.866438C0.866438 10.6812 1.3933 12.3413 2.29459 13.7325L3.46956 12.9713ZM2.26644 8.9L3.66644 8.90001C3.66646 5.53121 6.39759 2.80013 9.76649 2.8L9.76644 1.4L9.76638 0C4.85127 0.000191331 0.866463 3.98471 0.866438 8.89999L2.26644 8.9Z" fill="var(--stroke-0, white)" mask="url(#path-1-outside-1_0_382)"/>
</g>
<path id="Vector" d="M12.3849 9.95373C12.5997 10.0332 13.7416 10.5928 13.9727 10.7084C14.2051 10.8241 14.3612 10.8813 14.4187 10.9795C14.4774 11.0764 14.4774 11.5391 14.2849 12.0811C14.0889 12.622 13.1607 13.115 12.7147 13.1828C12.3134 13.24 11.8099 13.2669 11.2525 13.0893C10.9133 12.9818 10.4791 12.8405 9.92755 12.601C7.59339 11.5963 6.07248 9.26096 5.95747 9.10558L5.95558 9.10308C5.83147 8.93878 5.00691 7.84727 5.00691 6.71182C5.00691 5.57044 5.60424 5.01085 5.81782 4.77953C5.89574 4.69145 5.99111 4.62034 6.09794 4.57069C6.20477 4.52103 6.32076 4.49389 6.43862 4.49097C6.59471 4.49097 6.75079 4.49097 6.88457 4.49915C7.02774 4.50499 7.21903 4.44191 7.40679 4.89636C7.60277 5.35665 8.06632 6.49803 8.125 6.61369C8.1825 6.72935 8.21888 6.86253 8.1426 7.01908C8.06632 7.17328 8.02759 7.27142 7.91024 7.4046C7.79406 7.53778 7.66497 7.70601 7.56287 7.80882C7.44669 7.92447 7.32582 8.04831 7.4596 8.27962C7.59808 8.50977 8.06163 9.26913 8.75402 9.88247C9.64121 10.6734 10.3911 10.9164 10.6223 11.0332C10.8546 11.1477 10.9931 11.1302 11.1269 10.9748C11.2607 10.8241 11.7066 10.2995 11.8627 10.0694C12.0153 9.83807 12.1714 9.87779 12.3849 9.95373Z" fill="var(--fill-0, white)"/>
</g>
</svg>
