<svg preserveAspectRatio="none" width="100%" height="100%" overflow="visible" style="display: block;" viewBox="0 0 25 24" fill="none" xmlns="http://www.w3.org/2000/svg">
<g id="ant-design:youtube-filled">
<path id="Vector" d="M22.5617 7.18694C22.4422 6.76346 22.2078 6.37727 21.882 6.06702C21.5563 5.75677 21.1505 5.53335 20.7055 5.41911C19.0672 5 12.5 5 12.5 5C12.5 5 5.93281 5 4.29453 5.41688C3.84927 5.53075 3.44334 5.75405 3.11751 6.06436C2.79169 6.37466 2.55744 6.76105 2.43828 7.18471C2 8.74522 2 12 2 12C2 12 2 15.2548 2.43828 16.8131C2.67969 17.6736 3.39219 18.3513 4.29453 18.5809C5.93281 19 12.5 19 12.5 19C12.5 19 19.0672 19 20.7055 18.5809C21.6102 18.3513 22.3203 17.6736 22.5617 16.8131C23 15.2548 23 12 23 12C23 12 23 8.74522 22.5617 7.18694ZM10.4141 14.9873V9.01274L15.8516 11.9777L10.4141 14.9873Z" fill="var(--fill-0, white)" fill-opacity="0.5"/>
</g>
</svg>
